<svg xmlns:mydata="http://www.w3.org/2000/svg" mydata:contrastcolor="FDDA24" mydata:template="Default" mydata:presentation="2.5" mydata:layouttype="undefined" mydata:specialfontid="undefined" mydata:id1="004" mydata:id2="004" mydata:companyname="Tabu Learn" mydata:companytagline="" version="1.1" xmlns="http://www.w3.org/2000/svg" xmlns:xlink="http://www.w3.org/1999/xlink" viewBox="0 0 550 470"><g fill="none" fill-rule="none" stroke="none" stroke-width="1" stroke-linecap="butt" stroke-linejoin="miter" stroke-miterlimit="10" stroke-dasharray="" stroke-dashoffset="0" font-family="none" font-weight="none" font-size="none" text-anchor="none" style="mix-blend-mode: normal"><g data-paper-data="{&quot;isGlobalGroup&quot;:true}"><g data-paper-data="{&quot;textHeightFactor&quot;:0.45483269755510747,&quot;isSecondaryText&quot;:true}" fill="#6564c4" fill-rule="nonzero"><path d="M260.75274,292.00803h-7.88225v-13.3834c0,-0.62948 -0.30106,-0.7937 -0.7937,-0.7937h-2.70952c-0.49264,0 -0.7937,0.16421 -0.7937,0.7937v16.42135c0,0.49264 0.16421,0.7937 0.7937,0.7937h11.38547c0.62948,0 0.7937,-0.30106 0.7937,-0.7937v-2.24425c0,-0.49264 -0.16421,-0.7937 -0.7937,-0.7937z" data-paper-data="{&quot;glyphName&quot;:&quot;L&quot;,&quot;glyphIndex&quot;:0,&quot;firstGlyphOfWord&quot;:true,&quot;word&quot;:1}"></path><path d="M312.40703,292.00803h-8.73068v-3.6127h7.33487c0.62948,0 0.7937,-0.30106 0.7937,-0.7937v-2.13477c0,-0.49264 -0.16421,-0.7937 -0.7937,-0.7937h-7.33487v-2.98321h8.26541c0.62948,0 0.7937,-0.30106 0.7937,-0.7937v-2.27162c0,-0.49264 -0.16421,-0.7937 -0.7937,-0.7937h-11.796c-0.62948,0 -0.7937,0.30106 -0.7937,0.7937v16.42135c0,0.49264 0.16421,0.7937 0.7937,0.7937h12.26127c0.62948,0 0.7937,-0.30106 0.7937,-0.7937v-2.24425c0,-0.49264 -0.16421,-0.7937 -0.7937,-0.7937z" data-paper-data="{&quot;glyphName&quot;:&quot;E&quot;,&quot;glyphIndex&quot;:1,&quot;word&quot;:1}"></path><path d="M367.99164,295.07335l-6.04853,-16.39398c-0.24632,-0.57475 -0.52001,-0.84844 -1.12213,-0.84844h-2.62742c-0.60212,0 -0.90317,0.27369 -1.12213,0.84844l-6.0759,16.39398c-0.13684,0.32843 -0.13684,0.76633 0.46527,0.76633h2.87374c0.60212,0 0.82107,-0.16421 1.04002,-0.82107l0.76633,-2.16214h6.70538l0.76633,2.16214c0.21895,0.65685 0.4379,0.82107 1.04002,0.82107h2.87374c0.60212,0 0.60212,-0.4379 0.46527,-0.76633zM357.45461,289.02482l2.05267,-6.04853l2.05267,6.04853z" data-paper-data="{&quot;glyphName&quot;:&quot;A&quot;,&quot;glyphIndex&quot;:2,&quot;word&quot;:1}"></path><path d="M422.67409,294.96387l-3.85902,-5.61063c1.69687,-0.57475 3.80428,-2.57268 3.80428,-5.44641c0,-1.75161 -0.57475,-3.31164 -1.5874,-4.29692c-1.14949,-1.14949 -2.4632,-1.75161 -5.44641,-1.75161h-6.89696c-0.62948,0 -0.76633,0.30106 -0.76633,0.7937v16.39398c0,0.62948 0.27369,0.7937 0.76633,0.7937h2.70952c0.49264,0 0.7937,-0.16421 0.7937,-0.7937v-13.35603h3.64006c1.42318,0 2.51794,0.90317 2.51794,2.32636c0,1.28634 -1.25897,2.21688 -2.60005,2.21688h-0.54738c-0.62948,0 -0.7937,0.30106 -0.7937,0.7937v2.18951c0,0.76633 0.05474,1.06739 0.30106,1.39581l2.95584,4.40639c0.38316,0.57475 0.71159,0.82107 1.36845,0.82107h3.22953c0.52001,0 0.65685,-0.49264 0.41053,-0.87581z" data-paper-data="{&quot;glyphName&quot;:&quot;R&quot;,&quot;glyphIndex&quot;:3,&quot;word&quot;:1}"></path><path d="M477.11034,277.83094h-2.62742c-0.49264,0 -0.7937,0.16421 -0.7937,0.7937v9.49701l-5.80221,-9.36017c-0.3558,-0.54738 -0.54738,-0.93054 -1.2316,-0.93054h-2.57268c-0.62948,0 -0.7937,0.30106 -0.7937,0.7937v16.42135c0,0.62948 0.30106,0.7937 0.7937,0.7937h2.70952c0.49264,0 0.7937,-0.16421 0.7937,-0.7937v-9.52438l5.80221,9.38754c0.3558,0.54738 0.54738,0.93054 1.2316,0.93054h2.49057c0.62948,0 0.7937,-0.30106 0.7937,-0.7937v-16.42135c0,-0.62948 -0.30106,-0.7937 -0.7937,-0.7937z" data-paper-data="{&quot;glyphName&quot;:&quot;N&quot;,&quot;glyphIndex&quot;:4,&quot;lastGlyphOfWord&quot;:true,&quot;word&quot;:1}"></path><path d="M229.7786,259.0297v-2.78423h255.2214v2.78423z" data-paper-data="{&quot;isContainerTopLineAboveSecondaryText&quot;:true}"></path></g><g data-paper-data="{&quot;isPrimaryText&quot;:true}" fill="#6564c4" fill-rule="nonzero"><path d="M280.41206,174.26302h-47.65502c-2.36221,0 -2.97844,1.12975 -2.97844,2.97844v8.5245c0,1.84869 0.61623,2.97844 2.97844,2.97844h15.81654v50.11994c0,2.36221 1.12975,2.97844 2.97844,2.97844h10.16777c1.84869,0 2.97844,-0.61623 2.97844,-2.97844v-50.11994h15.71383c2.36221,0 2.97844,-1.12975 2.97844,-2.97844v-8.5245c0,-1.84869 -0.61623,-2.97844 -2.97844,-2.97844z" data-paper-data="{&quot;glyphName&quot;:&quot;T&quot;,&quot;glyphIndex&quot;:0,&quot;firstGlyphOfWord&quot;:true,&quot;word&quot;:1}"></path><path d="M319.43988,195.00939l14.9949,43.75224c0.82164,2.46491 1.64328,3.08114 3.90278,3.08114h11.70835c2.25951,0 2.25951,-1.64328 1.74598,-2.87573l-22.69776,-61.52017c-0.92434,-2.1568 -1.95139,-3.18385 -4.2109,-3.18385h-9.85966c-2.25951,0 -3.38926,1.02705 -4.2109,3.18385l-22.80046,61.52017c-0.51352,1.23246 -0.51352,2.87573 1.74598,2.87573h11.19482c2.25951,0 3.08114,-0.61623 3.90278,-3.08114z" data-paper-data="{&quot;glyphName&quot;:&quot;Λ&quot;,&quot;glyphIndex&quot;:1,&quot;word&quot;:1}"></path><path d="M409.10116,206.82044c0.92434,-0.41082 7.49745,-3.69737 7.49745,-14.07056c0,-9.65425 -7.18934,-18.58957 -23.93022,-18.58957h-28.75734c-2.36221,0 -2.97844,1.12975 -2.97844,2.97844v61.72558c0,1.84869 0.61623,2.97844 2.97844,2.97844h30.19521c14.27597,0 24.44374,-6.67581 24.44374,-19.71932c0,-11.09212 -8.6272,-14.9949 -9.44884,-15.30301zM394.31167,227.2587h-17.2544v-38.617h15.61113c5.34065,0 8.5245,1.12975 8.5245,5.75147c0,4.00549 -2.56762,6.16229 -8.5245,6.16229v0h-1.33516c-2.36221,0 -2.97844,1.12975 -2.97844,2.97844v7.80556c0,1.84869 0.61623,2.97844 2.97844,2.97844h2.36221c4.92983,0 8.5245,1.43787 8.5245,6.26499c0,4.62172 -2.87573,6.67581 -7.90827,6.67581z" data-paper-data="{&quot;glyphName&quot;:&quot;B&quot;,&quot;glyphIndex&quot;:2,&quot;word&quot;:1}"></path><path d="M482.02156,174.26302h-10.16777c-1.84869,0 -2.97844,0.61623 -2.97844,2.97844v41.69814c0,6.4704 -4.3136,10.16777 -11.09212,10.16777c-6.77852,0 -10.98941,-3.69737 -10.98941,-10.16777v-41.69814c0,-2.36221 -1.12975,-2.97844 -2.97844,-2.97844h-10.16777c-1.84869,0 -2.97844,0.61623 -2.97844,2.97844v43.95765c0,16.12465 14.89219,22.18423 27.11406,22.18423c12.22187,0 27.21677,-6.05958 27.21677,-22.18423v-43.95765c0,-2.36221 -1.12975,-2.97844 -2.97844,-2.97844z" data-paper-data="{&quot;glyphName&quot;:&quot;U&quot;,&quot;glyphIndex&quot;:3,&quot;lastGlyphOfWord&quot;:true,&quot;word&quot;:1}"></path></g><g data-paper-data="{&quot;fillRule&quot;:&quot;evenodd&quot;,&quot;isIcon&quot;:&quot;true&quot;,&quot;iconType&quot;:&quot;icon&quot;,&quot;rawIconId&quot;:&quot;8923&quot;,&quot;selectedEffects&quot;:{&quot;container&quot;:&quot;&quot;,&quot;transformation&quot;:&quot;&quot;,&quot;pattern&quot;:&quot;&quot;},&quot;bounds&quot;:{&quot;x&quot;:64.99999999999997,&quot;y&quot;:168.0763521794783,&quot;width&quot;:111.31594269362111,&quot;height&quot;:133.84793109396486},&quot;iconStyle&quot;:&quot;standalone&quot;}" fill-rule="evenodd"><g data-paper-data="{&quot;isPathIcon&quot;:true}"><path d="M171.22595,206.62433c-3.635,10.83699 -10.24199,23.26899 -22.06899,36.20498c0,0 12.03399,38.32698 -20.22299,52.47797c0,0 9.77499,-55.68897 -63.93397,-51.36597c0,0 8.4294,-35.20498 46.24498,-30.12898c0,0 9.91499,-20.33099 30.88098,-33.26098h-0.023c14.99399,-9.522 27.95499,-9.92599 27.95499,-9.92599c0.109,-0.184 0.241,-0.372 0.383,-0.568c0.709,-0.905 1.539,-1.451 1.866,-1.212l0.469,0.351l3.54,-1.12l-0.744,3.266l0.383,0.29c0.317,0.251 0.009,1.189 -0.712,2.096c-0.195,0.263 -0.403,0.493 -0.599,0.678c0.613,4.073 1.081,10.98499 -0.327,19.73199c-0.077,0.528 -0.166,1.046 -0.252,1.55c-0.075,0.403 -0.132,0.769 -0.217,1.168c-1.148,6.007 -2.611,9.82199 -2.611,9.82199c-0.011,-0.021 -0.011,-0.021 -0.011,-0.054zM133.19296,225.54232c4.554,2.625 10.18799,1.659 13.52999,-2.021c0.457,-0.513 0.884,-1.081 1.256,-1.713c2.969,-5.095 1.135,-11.66299 -4.075,-14.65499c-4.565,-2.621 -10.19899,-1.659 -13.52899,2.021c-0.469,0.519 -0.895,1.081 -1.256,1.714c-2.969,5.089 -1.145,11.65099 4.074,14.65399z" fill="#fd7542"></path><path d="M96.17558,251.41031c0,0 -6.618,24.01299 -24.81079,30.60898c0,0 5.4933,-21.96499 24.81079,-30.60898z" fill="#fd7542"></path><path d="M107.57498,260.3313c0,0 -8.6589,32.69398 -32.77058,41.59298c0,0 7.1762,-29.91998 32.77058,-41.59298z" fill="#fd7542"></path><path d="M118.96397,269.2533c0,0 -6.618,24.01799 -24.80919,30.62498c0,0 5.4823,-21.96599 24.80919,-30.62498z" fill="#fd7542"></path></g></g><path d="M197.70101,301.92365v-133.8473h2.96422v133.8473z" data-paper-data="{&quot;isShapeTextSeparator&quot;:true}" fill="#fd7542" fill-rule="nonzero"></path></g></g></svg>